# xmcd
#
# Track frame offsets:
#	150
#	12687
#	26277
#	38838
#	50353
#	60372
#	70343
#	81975
#	92931
#	104015
#	113884
#	126324
#	136872
#	147063
#	156858
#	168295
#	180481
#	192191
#	203237
#	216161
#
# Disc length: 3050 seconds
#
# Revision: 1
# Processed by: cddbd v1.5.2PL0 Copyright (c) Steve Scherf et al.
# Submitted via: audiograbber 1.83.01
#
DISCID=1c0be814
DTITLE=James Brown - The Absolute Essential Collection Disc 1
DYEAR=2016
DGENRE=Rhythm and Blues
TTITLE0=Please, Please, Please
TTITLE1=Why Do You Do Me
TTITLE2=I Know
TTITLE3=I Feel That Old Feeling Coming On
TTITLE4=No, No, No, No
TTITLE5=Hold My Baby's Hand
TTITLE6=Just Won't Do Right
TTITLE7=Let's Make It
TTITLE8=I Won't Plead No More
TTITLE9=Chonnie-On-Chon
TTITLE10=Gonna Try
TTITLE11=Can't Be The Same
TTITLE12=Love Or A Game
TTITLE13=Messing With The Blues
TTITLE14=You're Mine, You're Mine
TTITLE15=I Walked Alone
TTITLE16=Baby Cries Over The Ocean
TTITLE17=That Dood It
TTITLE18=Begging, Begging
TTITLE19=That's When I Lost My Heart
EXTD=
EXTT0=
EXTT1=
EXTT2=
EXTT3=
EXTT4=
EXTT5=
EXTT6=
EXTT7=
EXTT8=
EXTT9=
EXTT10=
EXTT11=
EXTT12=
EXTT13=
EXTT14=
EXTT15=
EXTT16=
EXTT17=
EXTT18=
EXTT19=
PLAYORDER=
